<svg width="77" height="77" viewBox="0 0 77 77" fill="none" xmlns="http://www.w3.org/2000/svg">
<path d="M76.2018 0.438447C75.921 0.157775 75.5402 0 75.1431 0L38.3198 0.00194599C37.4932 0.00194599 36.823 0.672266 36.823 1.49886V5.7796L22.6339 9.58163C21.8353 9.79569 21.3613 10.6164 21.5754 11.4149L28.9293 38.8597L22.5675 45.2215C21.7579 44.0392 20.3984 43.2617 18.8606 43.2617H4.49061C2.0144 43.2617 0 45.2762 0 47.7523V72.1515C0 74.6277 2.0144 76.6422 4.49061 76.6422H18.8607C20.9643 76.6422 22.734 75.1878 23.219 73.2323L24.9988 74.7844C26.3729 75.9825 28.1332 76.6424 29.9563 76.6424H75.1434C75.97 76.6424 76.6403 75.9721 76.6403 75.1455V1.49692C76.64 1.09994 76.4825 0.71912 76.2018 0.438447ZM20.3573 72.1516C20.3573 72.9769 19.6858 73.6486 18.8604 73.6486H4.49046C3.66506 73.6486 2.99354 72.977 2.99354 72.1516V47.7525C2.99354 46.9271 3.66506 46.2555 4.49046 46.2555H10.1786V63.4993C10.1786 64.3259 10.8489 64.9962 11.6755 64.9962C12.5021 64.9962 13.1724 64.3259 13.1724 63.4993V46.2555H18.8606C19.686 46.2555 20.3575 46.9271 20.3575 47.7525V72.1516H20.3573ZM24.8545 12.086L36.823 8.87897V14.4258L35.8198 14.6947C35.4361 14.7975 35.1093 15.0482 34.9108 15.3921C34.7123 15.7359 34.6585 16.1444 34.7613 16.5279C35.3366 18.6747 34.058 20.8891 31.9113 21.4643C31.5273 21.5673 31.2 21.8185 31.0016 22.1631C30.8033 22.5075 30.7498 22.9168 30.8536 23.3006L36.6884 44.9068H33.6841L32.1358 38.8497C32.0866 38.6569 32.0004 38.4792 31.885 38.3247L24.8545 12.086ZM36.823 21.2905V33.9217L34.0928 23.8122C35.2333 23.2233 36.1666 22.3423 36.823 21.2905ZM58.3283 73.6484H29.956C28.8565 73.6484 27.7948 73.2505 26.9661 72.528L23.3512 69.3753V48.6719L29.8864 42.1366L31.0717 46.7741C31.2411 47.4368 31.838 47.9002 32.5219 47.9002L61.9519 47.902C63.1075 47.902 64.0476 48.8421 64.0476 49.9977C64.0476 51.1533 63.1075 52.0934 61.9519 52.0934H46.872C46.0454 52.0934 45.375 52.7637 45.375 53.5903C45.375 54.4169 46.0454 55.0872 46.872 55.0872H66.6373C67.7929 55.0872 68.733 56.0273 68.733 57.1829C68.733 58.3385 67.7929 59.2786 66.6373 59.2786H46.872C46.0454 59.2786 45.375 59.9489 45.375 60.7755C45.375 61.6021 46.0454 62.2724 46.872 62.2724H63.4343C64.5899 62.2724 65.53 63.2125 65.53 64.3681C65.53 65.5237 64.5899 66.4638 63.4343 66.4638H46.872C46.0454 66.4638 45.375 67.1341 45.375 67.9607C45.375 68.7873 46.0454 69.4576 46.872 69.4576H58.3283C59.4839 69.4576 60.424 70.3977 60.424 71.5533C60.4239 72.7083 59.4838 73.6484 58.3283 73.6484ZM73.6464 73.6484H73.6463H62.9644C63.2547 73.0088 63.4177 72.2997 63.4177 71.5527C63.4177 70.8057 63.2547 70.0967 62.9644 69.457H63.4343C66.2406 69.457 68.5237 67.1739 68.5237 64.3677C68.5237 63.5491 68.3283 62.7757 67.9835 62.0898C70.1384 61.4979 71.7265 59.5227 71.7265 57.1826C71.7265 56.0473 71.3526 54.9978 70.7219 54.1506V35.1786C70.7219 34.352 70.0516 33.6817 69.225 33.6817C68.3984 33.6817 67.7281 34.352 67.7281 35.1786V52.2124C67.3763 52.1353 67.0115 52.0934 66.637 52.0934H66.5879C66.8781 51.4537 67.0411 50.7446 67.0411 49.9977C67.0411 47.1913 64.758 44.9083 61.9518 44.9083H59.5455C62.1006 43.8126 63.8951 41.2729 63.8951 38.3211C63.8951 34.3709 60.6815 31.1572 56.7313 31.1572C52.7812 31.1572 49.5675 34.3709 49.5675 38.3211C49.5675 41.2729 51.3621 43.8126 53.9171 44.9083H45.7345V16.4456C48.4086 15.8628 50.5186 13.7529 51.1012 11.0787H62.3612C62.9438 13.7529 65.0538 15.8628 67.7279 16.4456V21.0995C67.7279 21.9261 68.3982 22.5964 69.2248 22.5964C70.0514 22.5964 70.7218 21.9261 70.7218 21.0995V15.1091C70.7218 14.2825 70.0514 13.6122 69.2248 13.6122C67.0024 13.6122 65.1945 11.8041 65.1945 9.58178C65.1945 8.75518 64.5242 8.08486 63.6976 8.08486H49.7649C48.9383 8.08486 48.268 8.75518 48.268 9.58178C48.268 11.8043 46.46 13.6122 44.2377 13.6122C43.4111 13.6122 42.7408 14.2825 42.7408 15.1091V44.9082H39.817V2.99548L73.6464 2.99384V73.6484ZM56.7316 42.4912C54.4322 42.4912 52.5616 40.6205 52.5616 38.3213C52.5616 36.022 54.4323 34.1512 56.7316 34.1512C59.0308 34.1512 60.9015 36.0219 60.9015 38.3211C60.9015 40.6204 59.031 42.4912 56.7316 42.4912Z" fill="#3E377D"/>
</svg>
