<svg width="87" height="68" viewBox="0 0 87 68" fill="none" xmlns="http://www.w3.org/2000/svg">
<path d="M15.6574 30.8482C14.7237 30.8482 13.9668 30.0913 13.9668 29.1575V26.7856C13.9668 25.8519 14.7237 25.095 15.6574 25.095C16.5912 25.095 17.348 25.8519 17.348 26.7856V29.1575C17.348 30.0913 16.5912 30.8482 15.6574 30.8482Z" fill="#3E377D"/>
<path d="M29.5216 30.8482C28.5878 30.8482 27.8309 30.0913 27.8309 29.1575V26.7856C27.8309 25.8519 28.5878 25.095 29.5216 25.095C30.4553 25.095 31.2122 25.8519 31.2122 26.7856V29.1575C31.2122 30.0913 30.4553 30.8482 29.5216 30.8482Z" fill="#3E377D"/>
<path d="M22.5929 38.8107C21.164 38.8107 19.8316 38.0418 19.1157 36.8042C18.648 35.9959 18.9243 34.9618 19.7324 34.4941C20.5407 34.0265 21.575 34.3028 22.0425 35.1109C22.1579 35.3104 22.3637 35.4294 22.5929 35.4294C22.8224 35.4294 23.0281 35.3104 23.1434 35.1111C23.6109 34.3029 24.645 34.0265 25.4533 34.4941C26.2616 34.9616 26.5377 35.9958 26.0702 36.804C25.3544 38.0418 24.022 38.8107 22.5929 38.8107Z" fill="#3E377D"/>
<path d="M38.2631 47.1521H33.5309C33.5077 47.0406 33.4734 46.9307 33.4276 46.8245C33.2479 46.4086 32.9087 46.082 32.4861 45.9183L28.0585 44.2037C29.3395 43.6635 30.8945 42.8556 32.3544 41.7883C35.9728 39.1431 37.9534 35.7555 38.1054 31.9663C39.0323 31.7972 39.8807 31.3443 40.5507 30.6501C41.4159 29.7536 41.868 28.573 41.8236 27.326C41.7642 25.6538 40.8073 24.2288 39.4153 23.4873C40.3108 21.4007 41.4337 17.7929 41.4347 12.8174C41.4352 10.3787 40.8034 7.77092 39.5571 5.06626C39.0768 4.02399 38.5975 3.17918 38.28 2.65391C37.597 1.52423 37.4474 1.40673 37.1459 1.22837C36.5409 0.870298 35.7774 0.92406 35.2286 1.36345L34.743 1.75213C31.8629 4.05696 31.1681 4.61266 24.261 2.72576C19.4994 0.80876 16.3741 2.59338 13.8593 4.02906C12.354 4.88857 11.0522 5.63076 9.55563 5.57919C8.14176 5.53016 6.94514 6.07708 6.09323 7.15976C4.59483 9.06408 4.25248 12.6161 5.04674 18.0188C5.35257 20.0996 5.7661 22.0222 6.07751 23.3358C4.5174 24.0215 3.41985 25.5314 3.35594 27.3262C3.31165 28.5732 3.76372 29.7538 4.62898 30.6503C5.27514 31.32 6.08732 31.7649 6.97608 31.9475C7.12265 35.7284 9.10288 39.1173 12.7257 41.7726C14.2089 42.8596 15.7857 43.6789 17.0748 44.2216L12.6933 45.9183C12.2708 46.082 11.9315 46.4086 11.7517 46.8245C11.7059 46.9307 11.6714 47.0406 11.6485 47.1521H6.91555C3.19871 47.1521 0.174866 50.176 0.174866 53.8928V65.4205C0.174866 66.3542 0.931758 67.1111 1.86549 67.1111H43.3137C44.2474 67.1111 45.0041 66.3542 45.0041 65.4205V53.8933C45.0041 50.1762 41.9801 47.1521 38.2631 47.1521ZM27.5929 47.6494L29.6624 48.4509L27.8272 52.9681L25.022 49.5447L27.5929 47.6494ZM8.75022 9.25055C8.90356 9.05596 9.06535 8.94675 9.43881 8.95858C11.8956 9.04311 13.8297 7.93947 15.5354 6.96567C17.9092 5.61047 19.7844 4.53997 23.0737 5.89348C23.1376 5.91968 23.2032 5.94217 23.27 5.96043C30.3716 7.90752 32.5425 7.6169 35.8333 5.18291C36.7559 6.87083 38.0538 9.78513 38.0533 12.8169C38.0526 16.5495 37.339 19.3862 36.6707 21.2247L31.9664 14.266C31.646 13.7921 31.1167 13.5221 30.5657 13.5221C30.4017 13.5221 30.2357 13.5461 30.0729 13.5958C29.363 13.8122 28.8773 14.4661 28.8751 15.2083C28.872 16.3147 26.4348 16.7622 24.9953 16.8521C23.4015 16.9518 14.8566 16.6705 11.6987 16.5537C11.6779 16.553 11.6571 16.5525 11.6363 16.5525C10.526 16.5525 9.60618 17.2957 8.63864 19.0443C8.54954 18.5426 8.46416 18.0229 8.38707 17.495C7.49594 11.4051 8.43982 9.64497 8.75022 9.25055ZM10.3482 31.4936C10.3482 31.3725 10.3352 31.2518 10.3095 31.1336L10.0603 29.9904C9.89105 29.2138 9.20347 28.6598 8.40837 28.6598H7.90288C7.58284 28.6598 7.28394 28.5328 7.06162 28.3024C6.8393 28.0721 6.72333 27.7681 6.73465 27.4462C6.75663 26.8259 7.3115 26.3213 7.97152 26.3213C8.00465 26.3213 8.03745 26.3201 8.07008 26.3182C8.08513 26.3189 8.1 26.3208 8.11522 26.3209C8.12655 26.3211 8.13787 26.3213 8.1492 26.3213C8.88175 26.3213 9.53281 25.8488 9.75817 25.149C10.4645 22.9561 11.4706 20.6896 12.0463 19.9498C14.2606 20.0293 23.3368 20.3429 25.2059 20.2268C27.9937 20.0526 29.6918 19.3311 30.72 18.4601L35.5317 25.5777C35.8458 26.0425 36.3699 26.3209 36.9309 26.3215H36.9324C36.9781 26.3215 37.0234 26.3189 37.0685 26.3154C37.1143 26.3191 37.1606 26.3215 37.2075 26.3215C37.8675 26.3215 38.4224 26.8261 38.4443 27.4464C38.4558 27.7681 38.3397 28.0721 38.1174 28.3024C37.8949 28.5328 37.596 28.6598 37.2759 28.6598H36.6731C35.8781 28.6598 35.1906 29.2136 35.0213 29.9904L34.7721 31.1336C34.7463 31.252 34.7334 31.3727 34.7334 31.4936C34.7334 38.2838 26.3302 41.4375 25.1434 41.6456C24.6669 41.7137 24.2421 41.9817 23.9755 42.3824C23.7087 42.7831 23.6255 43.2784 23.7466 43.7442L24.3004 45.8759L22.5895 47.1373L20.7966 45.8155L21.3347 43.7445C21.4558 43.2787 21.3778 42.7842 21.1112 42.3836C20.8444 41.9829 20.425 41.7158 19.9487 41.6475C18.7521 41.4356 10.3482 38.2691 10.3482 31.4936ZM17.5863 47.6494L20.1572 49.5447L17.3519 52.9681L15.5168 48.4509L17.5863 47.6494ZM41.623 63.7299H3.55611V53.8928C3.55611 52.0404 5.06314 50.5334 6.91555 50.5334H12.7132L15.2901 56.8764C15.5146 57.4289 16.0135 57.8223 16.6032 57.9118C16.6877 57.9246 16.7724 57.9309 16.8564 57.9309C17.3585 57.9309 17.8402 57.7069 18.1639 57.3118L22.5895 51.9112L27.015 57.3118C27.3388 57.7069 27.8205 57.9309 28.3226 57.9309C28.4066 57.9309 28.4913 57.9246 28.576 57.9118C29.1657 57.8225 29.6646 57.4291 29.8891 56.8764L32.466 50.5334H38.2631C40.1157 50.5334 41.623 52.0406 41.623 53.8933V63.7299Z" fill="#3E377D"/>
<path d="M68.6776 41.0437C62.3129 41.0437 57.135 35.8657 57.135 29.501C57.135 23.1363 62.313 17.9583 68.6776 17.9583C75.0421 17.9583 80.2201 23.1363 80.2201 29.501C80.2203 35.8657 75.0423 41.0437 68.6776 41.0437ZM68.6776 21.3395C64.1775 21.3395 60.5163 25.0007 60.5163 29.501C60.5163 34.0013 64.1775 37.6625 68.6776 37.6625C73.1777 37.6625 76.8389 34.0013 76.8389 29.501C76.8391 25.0009 73.1777 21.3395 68.6776 21.3395Z" fill="#3E377D"/>
<path d="M67.6294 33.403C67.1966 33.403 66.7641 33.238 66.434 32.9079L64.1082 30.5822C63.448 29.922 63.448 28.8515 64.1082 28.1914C64.7685 27.5312 65.8387 27.531 66.4992 28.1914L67.6296 29.3217L70.8563 26.0948C71.5167 25.4346 72.5868 25.4345 73.2474 26.0948C73.9075 26.755 73.9075 27.8255 73.2474 28.4857L68.8252 32.908C68.4947 33.2379 68.0622 33.403 67.6294 33.403Z" fill="#3E377D"/>
<path d="M52.3103 60.1721C51.5751 60.1721 50.9074 59.6741 50.6941 58.9718C50.4865 58.2888 50.7433 57.5204 51.3267 57.1062C51.8867 56.7087 52.6447 56.6909 53.2241 57.0585C53.8246 57.4396 54.1196 58.1858 53.9534 58.8756C53.7729 59.6259 53.0833 60.1721 52.3103 60.1721Z" fill="#3E377D"/>
<path d="M85.0442 60.1698H59.9171C58.9836 60.1698 58.2265 59.4129 58.2265 58.4792C58.2265 57.5455 58.9836 56.7886 59.9171 56.7886H85.0442C85.9778 56.7886 86.7348 57.5455 86.7348 58.4792C86.7348 59.4129 85.9778 60.1698 85.0442 60.1698Z" fill="#3E377D"/>
<path d="M52.3116 53.2295C51.5757 53.2295 50.9089 52.732 50.6954 52.0292C50.4874 51.3448 50.7451 50.5801 51.328 50.1641C51.8797 49.7705 52.6266 49.7485 53.2034 50.1024C53.7962 50.466 54.1067 51.1872 53.9701 51.8686C53.8134 52.6498 53.1089 53.2295 52.3116 53.2295Z" fill="#3E377D"/>
<path d="M85.0443 53.2282H59.9172C58.9836 53.2282 58.2266 52.4713 58.2266 51.5375C58.2266 50.6038 58.9836 49.8469 59.9172 49.8469H85.0443C85.9778 49.8469 86.7349 50.6038 86.7349 51.5375C86.7349 52.4713 85.9778 53.2282 85.0443 53.2282Z" fill="#3E377D"/>
<path d="M85.0442 67.1117H52.3112C51.3776 67.1117 50.6205 66.3548 50.6205 65.4211C50.6205 64.4874 51.3776 63.7305 52.3112 63.7305H85.0442C85.9777 63.7305 86.7348 64.4874 86.7348 65.4211C86.7348 66.3548 85.9777 67.1117 85.0442 67.1117Z" fill="#3E377D"/>
</svg>
