<svg width="56" height="77" viewBox="0 0 56 77" fill="none" xmlns="http://www.w3.org/2000/svg">
<path d="M55.515 27.0529L51.3859 21.7285L52.3004 15.0528C52.3932 14.3759 52.0158 13.7221 51.3833 13.4638L45.1439 10.9158L42.5973 4.67813C42.3391 4.04554 41.6853 3.66771 41.0084 3.76082L34.3327 4.67529L29.007 0.544841C28.467 0.126003 27.7121 0.126003 27.172 0.544841L21.8463 4.67544L15.1706 3.76097C14.494 3.66846 13.8399 4.04554 13.5817 4.67828L11.0351 10.9159L4.79565 13.464C4.1632 13.7224 3.78582 14.3761 3.87863 15.053L4.7931 21.7286L0.664001 27.053C0.245463 27.5927 0.245463 28.3476 0.664001 28.8875L4.79325 34.2134L3.87878 40.8892C3.78597 41.5663 4.1635 42.2201 4.79609 42.4783L11.0353 45.0249L13.5817 51.2639C13.84 51.8966 14.4943 52.2745 15.1708 52.1812L17.6111 51.8465V75.376C17.6111 75.9815 17.9759 76.5272 18.5351 76.759C19.0947 76.9904 19.7385 76.8626 20.1665 76.4344L28.0895 68.5114L36.0125 76.4344C36.4408 76.8627 37.0845 76.9904 37.6439 76.759C38.2031 76.5272 38.5679 75.9815 38.5679 75.376V51.8465L41.0084 52.1809C41.6854 52.274 42.3394 51.8963 42.5975 51.2636L45.1439 45.0246L51.383 42.478C52.0156 42.2198 52.3932 41.566 52.3004 40.8889L51.3859 34.2131L55.5151 28.8872C55.9337 28.3474 55.9337 27.5927 55.515 27.0529ZM35.5741 71.7621L29.148 65.336C28.5633 64.7514 27.6157 64.7514 27.0309 65.336L20.6049 71.7621V51.4363L21.8463 51.2663L27.1723 55.3955C27.4422 55.6048 27.7659 55.7094 28.0895 55.7094C28.4131 55.7094 28.7368 55.6048 29.0067 55.3955L34.3327 51.2663L35.5741 51.4363V71.7621ZM48.6343 32.876C48.3879 33.1941 48.2796 33.5979 48.3343 33.9965L49.1766 40.1451L43.4299 42.4906C43.0575 42.6427 42.7617 42.9383 42.6098 43.3108L40.2644 49.0573L37.6556 48.6998C37.4222 48.6007 37.1634 48.5594 36.8845 48.5941L34.1158 48.2148C33.7161 48.1605 33.3133 48.2684 32.9955 48.515L28.0895 52.3185L23.1836 48.5148C22.8682 48.2702 22.4662 48.16 22.0633 48.2147L15.9148 49.057L13.5694 43.3105C13.4173 42.9379 13.1217 42.6422 12.7492 42.4903L7.00255 40.1448L7.84487 33.9962C7.89951 33.5976 7.79143 33.1938 7.54489 32.8757L3.74152 27.9702L7.54459 23.066C7.79113 22.7479 7.89936 22.3442 7.84472 21.9454L7.0024 15.7965L12.7494 13.4496C13.1217 13.2975 13.4171 13.002 13.5692 12.6296L15.9148 6.88459L22.0633 7.72691C22.4629 7.78125 22.8658 7.67332 23.1839 7.42678L28.0895 3.62221L32.995 7.42693C33.313 7.67347 33.7167 7.78155 34.1156 7.72706L40.2642 6.88474L42.6098 12.6298C42.7618 13.0022 43.0572 13.2977 43.4296 13.4498L49.1766 15.7966L48.3343 21.9455C48.2796 22.3443 48.3877 22.748 48.6344 23.0661L52.4376 27.9705L48.6343 32.876Z" fill="#3E377D"/>
</svg>
