<svg width="77" height="77" viewBox="0 0 77 77" fill="none" xmlns="http://www.w3.org/2000/svg">
<path d="M76.9554 66.1638C76.9554 65.3371 76.2851 64.6669 75.4585 64.6669H64.9803V7.48456C64.9803 5.47675 64.1925 3.5887 62.762 2.16828C61.3398 0.755941 59.4601 -0.0122747 57.4776 0.000149691H25.7609C24.9343 0.000149691 24.264 0.670318 24.264 1.49706C24.264 2.32381 24.9343 2.99397 25.7609 2.99397H57.4881C58.6825 2.9829 59.8007 3.44679 60.6526 4.2927C61.5127 5.14683 61.9865 6.28045 61.9865 7.48456V64.6669H60.4894C59.6628 64.6669 58.9925 65.3371 58.9925 66.1638C58.9925 66.9906 59.6628 67.6608 60.4894 67.6608H73.9616L73.9618 69.1575C73.9618 71.6337 71.9472 73.6483 69.4709 73.6483H25.7574C26.699 72.3965 27.2578 70.8409 27.2578 69.1575V67.6608H48.5141C49.3407 67.6608 50.011 66.9906 50.011 66.1638C50.011 65.3371 49.3407 64.6669 48.5141 64.6669H25.7609C24.9343 64.6669 24.264 65.3371 24.264 66.1638V69.1575C24.264 71.6337 22.2494 73.6483 19.7732 73.6483C17.297 73.6483 15.2825 71.6337 15.2825 69.1575V7.48456C15.2825 5.80099 14.7234 4.24569 13.7815 2.99383H13.7856C14.6122 2.99383 15.2825 2.32366 15.2825 1.49691C15.2825 0.670168 14.6122 0 13.7856 0H7.80076C7.79971 0 7.79882 0 7.79792 0C3.67093 0 0.313354 3.35758 0.313354 7.48456V10.4784C0.313354 11.3051 0.983672 11.9753 1.81027 11.9753H12.2887V69.1577C12.2887 73.2847 15.6462 76.6422 19.7732 76.6422H69.4709C73.5979 76.6422 76.9556 73.2847 76.9556 69.1577L76.9554 66.1638ZM12.2887 8.98148H3.30718V7.48456C3.30718 5.00867 5.32113 2.99442 7.79702 2.99383C7.79732 2.99383 7.79762 2.99383 7.79792 2.99383H7.80076C10.2756 2.99547 12.2887 5.00942 12.2887 7.48456V8.98148Z" fill="#3E377D"/>
<path d="M19.7741 2.99408C20.6007 2.99408 21.271 2.32391 21.271 1.49716C21.271 0.670415 20.6007 0.000244141 19.7741 0.000244141H19.7731C18.9465 0.000244141 18.2767 0.670415 18.2767 1.49716C18.2767 2.32391 18.9474 2.99408 19.7741 2.99408Z" fill="#3E377D"/>
<path d="M54.5026 67.6611C55.3292 67.6611 55.9996 66.9909 55.9996 66.1642C55.9996 65.3374 55.3292 64.6672 54.5026 64.6672H54.5014C53.6748 64.6672 53.0051 65.3374 53.0051 66.1642C53.0051 66.9909 53.6759 67.6611 54.5026 67.6611Z" fill="#3E377D"/>
<path d="M25.3418 25.4857C25.2979 32.4213 31.9132 35.0221 35.8659 36.576C36.7892 36.939 37.5864 37.2525 38.0805 37.53C38.3082 37.6579 38.5611 37.7219 38.8137 37.7219C39.0664 37.7219 39.3192 37.658 39.5469 37.53C40.0411 37.2525 40.8383 36.939 41.7616 36.576C45.7141 35.0221 52.3297 32.4213 52.2859 25.4857C52.2697 22.9074 51.2918 20.9855 50.5062 19.4411C49.3224 17.1142 48.8793 16.2434 51.2453 14.1959C51.5495 13.9328 51.735 13.5582 51.7598 13.1567C51.7848 12.7553 51.6471 12.3607 51.3778 12.0619L48.0918 8.41526C47.6233 7.89523 46.8568 7.76964 46.2465 8.11228C44.3161 9.19695 41.6236 9.14201 39.5471 7.97531C39.0916 7.71949 38.5361 7.71949 38.0805 7.97531C36.0039 9.14201 33.3117 9.1971 31.3811 8.11228C30.7709 7.76949 30.0045 7.89508 29.5358 8.41526L26.2498 12.0619C25.9805 12.3607 25.8428 12.7553 25.8678 13.1567C25.8926 13.5582 26.0781 13.9328 26.3823 14.1959C28.7483 16.2434 28.3054 17.1142 27.1215 19.4413C26.3359 20.9855 25.3582 22.9074 25.3418 25.4857ZM29.4352 12.9991L31.0176 11.2432C33.45 12.1912 36.3354 12.0921 38.8137 10.9584C41.292 12.0921 44.1779 12.1911 46.6098 11.2432L48.1922 12.9991C45.4369 16.0796 46.7052 18.5725 47.8378 20.7987C48.5469 22.1926 49.2802 23.634 49.292 25.5047C49.3205 30.0133 45.2282 31.9964 40.6662 33.7898C39.9786 34.0602 39.3537 34.3058 38.8137 34.5524C38.2738 34.3058 37.6488 34.0602 36.9613 33.7898C32.3993 31.9964 28.3072 30.0133 28.3356 25.5045C28.3474 23.634 29.0808 22.1926 29.7899 20.7987C30.9224 18.5725 32.1908 16.0795 29.4352 12.9991Z" fill="#3E377D"/>
<path d="M24.2642 42.2125C24.2642 43.0392 24.9345 43.7094 25.7611 43.7094H38.6347C39.4613 43.7094 40.1316 43.0392 40.1316 42.2125C40.1316 41.3857 39.4613 40.7156 38.6347 40.7156H25.7611C24.9345 40.7156 24.2642 41.3857 24.2642 42.2125Z" fill="#3E377D"/>
<path d="M25.7611 49.6975H51.5084C52.335 49.6975 53.0053 49.0273 53.0053 48.2005C53.0053 47.3738 52.335 46.7036 51.5084 46.7036H25.7611C24.9345 46.7036 24.2642 47.3738 24.2642 48.2005C24.2642 49.0273 24.9345 49.6975 25.7611 49.6975Z" fill="#3E377D"/>
<path d="M25.7611 55.6852H51.5084C52.335 55.6852 53.0053 55.0151 53.0053 54.1883C53.0053 53.3616 52.335 52.6914 51.5084 52.6914H25.7611C24.9345 52.6914 24.2642 53.3616 24.2642 54.1883C24.2642 55.0151 24.9345 55.6852 25.7611 55.6852Z" fill="#3E377D"/>
<path d="M25.7611 61.673H51.5084C52.335 61.673 53.0053 61.0029 53.0053 60.1761C53.0053 59.3494 52.335 58.6792 51.5084 58.6792H25.7611C24.9345 58.6792 24.2642 59.3494 24.2642 60.1761C24.2642 61.0029 24.9345 61.673 25.7611 61.673Z" fill="#3E377D"/>
</svg>
