<svg width="27" height="26" viewBox="0 0 27 26" fill="none" xmlns="http://www.w3.org/2000/svg">
<g clip-path="url(#clip0)">
<path d="M24.5891 23.2143C25.196 23.2143 25.7219 23.0213 26.169 22.6403L18.5194 15.2738C18.3359 15.4004 18.158 15.5234 17.99 15.6404C17.4175 16.0466 16.9529 16.3635 16.5961 16.5906C16.2394 16.8182 15.7648 17.0502 15.1723 17.2871C14.5795 17.5243 14.0272 17.6425 13.5148 17.6425H13.4998H13.4848C12.9724 17.6425 12.4201 17.5243 11.8273 17.2871C11.2345 17.0502 10.7599 16.8182 10.4035 16.5906C10.0468 16.3635 9.58244 16.0466 9.00969 15.6404C8.85008 15.5278 8.67307 15.4041 8.48169 15.2718L0.830688 22.6403C1.2777 23.0213 1.80393 23.2143 2.4108 23.2143H24.5891Z" fill="#3E377D"/>
<path d="M1.52193 10.6351C0.949518 10.2676 0.441916 9.84676 0 9.37268V20.5802L6.74227 14.0877C5.39343 13.1809 3.65552 12.0313 1.52193 10.6351Z" fill="#3E377D"/>
<path d="M25.4933 10.6351C23.4411 11.9727 21.6969 13.1242 20.2604 14.0903L27 20.5805V9.37268C26.5679 9.83722 26.0657 10.2578 25.4933 10.6351Z" fill="#3E377D"/>
<path d="M24.5893 2.78568H2.41111C1.63738 2.78568 1.04252 3.03727 0.6258 3.53996C0.208737 4.04287 0.000549316 4.67183 0.000549316 5.42611C0.000549316 6.03538 0.276826 6.69553 0.829135 7.40676C1.38144 8.11771 1.96915 8.67614 2.59195 9.08233C2.93337 9.31463 3.96299 10.0039 5.6808 11.1499C6.60811 11.7687 7.41454 12.3081 8.10753 12.7735C8.69823 13.1699 9.20764 13.5131 9.62823 13.7979C9.67652 13.8305 9.75245 13.8828 9.85324 13.9522C9.96181 14.0273 10.0992 14.1226 10.2687 14.2405C10.5952 14.4678 10.8663 14.6516 11.0823 14.792C11.298 14.9324 11.5593 15.0893 11.8659 15.2635C12.1722 15.4374 12.4612 15.5682 12.7323 15.6552C13.0036 15.7422 13.2546 15.7858 13.4856 15.7858H13.5006H13.5156C13.7466 15.7858 13.9977 15.7422 14.269 15.6552C14.5401 15.5682 14.8288 15.4377 15.1353 15.2635C15.4416 15.0893 15.7026 14.9321 15.919 14.792C16.135 14.6516 16.4061 14.4679 16.7326 14.2405C16.9018 14.1226 17.0392 14.0273 17.1478 13.9525C17.2486 13.8828 17.3245 13.8308 17.3731 13.7979C17.7007 13.5784 18.2113 13.2366 18.8978 12.7775C20.1469 11.9418 21.9865 10.7117 24.4244 9.08233C25.1576 8.58919 25.7701 7.99408 26.2625 7.29786C26.7539 6.60164 27.0003 5.87134 27.0003 5.10719C27.0003 4.46875 26.7614 3.92245 26.2847 3.46745C25.8074 3.01301 25.2422 2.78568 24.5893 2.78568Z" fill="#3E377D"/>
</g>
<defs>
<clipPath id="clip0">
<rect width="27" height="26" fill="white"/>
</clipPath>
</defs>
</svg>
