<svg width="26" height="26" viewBox="0 0 26 26" fill="none" xmlns="http://www.w3.org/2000/svg">
<g clip-path="url(#clip0)">
<path d="M22.1907 3.80586C17.1131 -1.27018 8.8819 -1.26896 3.80586 3.80865C-1.27018 8.88627 -1.26896 17.1174 3.80865 22.1934C8.88627 27.2695 17.1174 27.2683 22.1934 22.1907C24.6312 19.7521 26.0004 16.445 25.9997 12.9969C25.9989 9.54932 24.6288 6.24326 22.1907 3.80586ZM19.6877 18.1085C19.6871 18.1091 19.6866 18.1097 19.686 18.1102V18.1059L19.0273 18.7602C18.1754 19.6228 16.9348 19.9778 15.7556 19.6962C14.5676 19.3782 13.4382 18.872 12.4103 18.1969C11.4553 17.5866 10.5703 16.8731 9.77129 16.0692C9.03613 15.3394 8.37566 14.5381 7.7996 13.6772C7.16951 12.7509 6.67078 11.7418 6.3176 10.6785C5.91272 9.42953 6.24823 8.05899 7.18429 7.13823L7.9556 6.36691C8.17005 6.1515 8.51851 6.15073 8.73388 6.36518C8.73443 6.36574 8.73504 6.3663 8.7356 6.36691L11.1709 8.80223C11.3863 9.01668 11.3871 9.36514 11.1726 9.5805C11.1721 9.58106 11.1715 9.58162 11.1709 9.58223L9.74092 11.0122C9.33061 11.4181 9.27901 12.063 9.6196 12.5289C10.1368 13.2387 10.7092 13.9067 11.3313 14.5266C12.0249 15.2232 12.779 15.8569 13.5846 16.4203C14.0501 16.745 14.6812 16.6902 15.0839 16.2903L16.4662 14.8863C16.6807 14.6709 17.0291 14.6701 17.2445 14.8846C17.2451 14.8851 17.2456 14.8857 17.2462 14.8863L19.6859 17.3303C19.9014 17.5447 19.9021 17.8931 19.6877 18.1085Z" fill="#3E377D"/>
</g>
<defs>
<clipPath id="clip0">
<rect width="26" height="26" fill="white"/>
</clipPath>
</defs>
</svg>
