<svg width="49" height="49" viewBox="0 0 49 49" fill="none" xmlns="http://www.w3.org/2000/svg">
<path d="M24.5 0C38.031 0 49 10.969 49 24.5C49 38.031 38.031 49 24.5 49C10.969 49 0 38.031 0 24.5C0 10.969 10.969 0 24.5 0ZM18.8236 25.5828L25.7142 32.4734C26.0132 32.7724 26.4051 32.922 26.7969 32.922C28.1488 32.922 28.8469 31.2753 27.8796 30.308L22.0717 24.5001L27.8796 18.6922C28.4776 18.0942 28.4776 17.1246 27.8796 16.5267C27.2816 15.9287 26.312 15.9287 25.7141 16.5267L18.8235 23.4173C18.2255 24.0154 18.2255 24.9848 18.8236 25.5828Z" fill="#3E377D"/>
</svg>
