<svg width="52" height="52" viewBox="0 0 52 52" fill="none" xmlns="http://www.w3.org/2000/svg">
<path d="M52 0H0V52H52V0Z" fill="#7D3DAF"/>
<path d="M42.4457 16.7617L42.4354 16.7207C41.6048 13.3626 37.8599 9.75928 34.4209 9.00963L34.3821 9.00164C28.8196 7.94049 23.1795 7.94049 17.6182 9.00164L17.5782 9.00963C14.1403 9.75928 10.3955 13.3626 9.56368 16.7207L9.55455 16.7617C8.52763 21.4514 8.52763 26.2071 9.55455 30.8968L9.56368 30.9378C10.36 34.1525 13.826 37.5903 17.1367 38.5358V42.2843C17.1367 43.641 18.79 44.3073 19.7302 43.3283L23.5281 39.3805C24.3518 39.4266 25.176 39.4523 26.0001 39.4523C28.8002 39.4523 31.6014 39.1875 34.3821 38.657L34.4209 38.649C37.8599 37.8993 41.6048 34.296 42.4354 30.9379L42.4457 30.8969C43.4726 26.2071 43.4726 21.4514 42.4457 16.7617ZM39.4403 30.2167C38.8857 32.4075 36.0423 35.1311 33.7831 35.6343C30.8254 36.1967 27.8444 36.4371 24.8663 36.3546C24.8071 36.353 24.7501 36.3759 24.7088 36.4184C24.2862 36.8522 21.9358 39.265 21.9358 39.265L18.9863 42.2922C18.7706 42.5169 18.3918 42.364 18.3918 42.0537V35.844C18.3918 35.7414 18.3185 35.6543 18.2178 35.6345C18.2172 35.6344 18.2166 35.6343 18.2161 35.6342C15.9568 35.131 13.1145 32.4074 12.5589 30.2166C11.6346 25.9777 11.6346 21.6806 12.5589 17.4417C13.1145 15.2509 15.9568 12.5273 18.2161 12.0241C23.3815 11.0417 28.6188 11.0417 33.7831 12.0241C36.0434 12.5273 38.8857 15.2509 39.4403 17.4417C40.3655 21.6807 40.3655 25.9778 39.4403 30.2167Z" fill="white"/>
<path d="M30.9146 33.083C30.5673 32.9776 30.2363 32.9067 29.9289 32.7792C26.7436 31.4576 23.8121 29.7527 21.49 27.1392C20.1695 25.653 19.1359 23.9752 18.2622 22.1995C17.8479 21.3574 17.4988 20.4824 17.1429 19.613C16.8184 18.8203 17.2964 18.0012 17.7997 17.4039C18.2719 16.8433 18.8796 16.4143 19.5378 16.0981C20.0515 15.8513 20.5582 15.9936 20.9334 16.429C21.7444 17.3704 22.4894 18.3599 23.0927 19.451C23.4636 20.1222 23.3618 20.9426 22.6895 21.3993C22.5261 21.5103 22.3772 21.6406 22.225 21.766C22.0915 21.8759 21.9659 21.9869 21.8744 22.1357C21.7071 22.408 21.6991 22.7291 21.8068 23.025C22.6359 25.3034 24.0333 27.0751 26.3265 28.0293C26.6935 28.182 27.0621 28.3598 27.4848 28.3105C28.1928 28.2278 28.422 27.4512 28.9182 27.0454C29.4031 26.6489 30.0228 26.6437 30.5451 26.9742C31.0676 27.3049 31.5741 27.6599 32.0775 28.0186C32.5717 28.3707 33.0637 28.7152 33.5196 29.1166C33.9578 29.5026 34.1088 30.009 33.862 30.5329C33.4101 31.4922 32.7527 32.2904 31.8043 32.7998C31.5365 32.9435 31.2166 32.99 30.9146 33.083C30.5673 32.9775 31.2166 32.99 30.9146 33.083Z" fill="white"/>
<path d="M26.0088 15.0012C30.1753 15.1179 33.5973 17.883 34.3306 22.0021C34.4556 22.7039 34.5001 23.4215 34.5556 24.1338C34.579 24.4335 34.4094 24.7182 34.086 24.722C33.752 24.726 33.6018 24.4466 33.5801 24.1471C33.5372 23.5542 33.5074 22.9587 33.4257 22.3707C32.9944 19.267 30.5195 16.6993 27.4302 16.1483C26.9653 16.0653 26.4895 16.0435 26.0186 15.9941C25.7209 15.9628 25.331 15.9448 25.2651 15.5748C25.2097 15.2645 25.4716 15.0175 25.767 15.0016C25.8473 14.9972 25.9281 15.0008 26.0088 15.0012C30.1753 15.1179 25.9281 15.0008 26.0088 15.0012Z" fill="white"/>
<path d="M32.3405 23.2092C32.3336 23.2612 32.33 23.3836 32.2995 23.4988C32.1889 23.9171 31.5548 23.9695 31.4087 23.5473C31.3655 23.422 31.359 23.2795 31.3587 23.1446C31.3573 22.2622 31.1654 21.3806 30.7204 20.6128C30.263 19.8237 29.5641 19.1603 28.7444 18.7589C28.2488 18.5162 27.7127 18.3653 27.1695 18.2754C26.932 18.2362 26.6921 18.2123 26.4535 18.1791C26.1644 18.1389 26.01 17.9547 26.0237 17.6697C26.0364 17.4027 26.2316 17.2107 26.5225 17.2271C27.4787 17.2815 28.4022 17.4881 29.2523 17.9382C30.9809 18.8537 31.9684 20.2987 32.2566 22.2281C32.2696 22.3156 32.2906 22.4022 32.2972 22.4899C32.3135 22.7066 32.3238 22.9235 32.3405 23.2092C32.3336 23.2612 32.3238 22.9235 32.3405 23.2092Z" fill="white"/>
<path d="M29.7491 23.1083C29.4006 23.1146 29.214 22.9217 29.1781 22.6021C29.1531 22.3792 29.1333 22.1534 29.0802 21.9366C28.9754 21.5096 28.7485 21.1139 28.3893 20.8523C28.2197 20.7287 28.0276 20.6387 27.8263 20.5806C27.5706 20.5068 27.3051 20.5271 27.0499 20.4646C26.7729 20.3967 26.6196 20.1724 26.6632 19.9124C26.7028 19.6759 26.933 19.4913 27.1914 19.51C28.8068 19.6266 29.9613 20.4617 30.126 22.3634C30.1377 22.4975 30.1513 22.6394 30.1216 22.7677C30.0706 22.9875 29.9079 23.0976 29.7491 23.1083C29.4006 23.1146 29.9079 23.0976 29.7491 23.1083Z" fill="white"/>
</svg>
