<svg width="52" height="52" viewBox="0 0 52 52" fill="none" xmlns="http://www.w3.org/2000/svg">
<path d="M52 0H0V52H52V0Z" fill="#1BD741"/>
<path d="M7.81531 44.2044L10.3624 35.158C8.72448 32.3753 7.86209 29.2093 7.86209 25.957C7.86209 15.9428 16.0092 7.79562 26.0234 7.79562C36.0376 7.79562 44.1846 15.9428 44.1846 25.957C44.1846 35.9712 36.0376 44.1183 26.0234 44.1183C22.9031 44.1183 19.8476 43.3196 17.1447 41.8029L7.81531 44.2044ZM17.6216 38.4989L18.1775 38.8383C20.5342 40.277 23.2473 41.0375 26.0234 41.0375C34.3389 41.0375 41.1039 34.2724 41.1039 25.957C41.1039 17.6415 34.3389 10.8764 26.0234 10.8764C17.708 10.8764 10.9429 17.6415 10.9429 25.957C10.9429 28.8544 11.7663 31.668 13.3241 34.0937L13.6984 34.6767L12.2316 39.8864L17.6216 38.4989Z" fill="white"/>
<path d="M20.9217 17.5041L19.7432 17.4399C19.3731 17.4197 19.01 17.5434 18.7302 17.7864C18.1589 18.2826 17.2454 19.2417 16.9648 20.4916C16.5464 22.3552 17.193 24.6373 18.8666 26.9193C20.5401 29.2014 23.6589 32.8526 29.1738 34.4121C30.9509 34.9146 32.3489 34.5758 33.4275 33.8858C34.2818 33.3394 34.8707 32.4623 35.0829 31.4707L35.2711 30.5919C35.3309 30.3126 35.189 30.0292 34.9296 29.9096L30.9468 28.0738C30.6883 27.9547 30.3817 28.03 30.2078 28.2553L28.6442 30.2822C28.5261 30.4354 28.3239 30.4961 28.1414 30.432C27.0706 30.0556 23.4839 28.5535 21.5159 24.7625C21.4306 24.5981 21.4518 24.3986 21.5728 24.2583L23.0671 22.5297C23.2198 22.3532 23.2584 22.105 23.1666 21.8905L21.4498 17.874C21.3585 17.6601 21.1536 17.5168 20.9217 17.5041Z" fill="white"/>
</svg>
