<svg width="45" height="45" viewBox="0 0 45 45" fill="none" xmlns="http://www.w3.org/2000/svg">
<path d="M42.9846 32.7381L37.4997 27.2533C35.9876 25.7412 33.527 25.7412 32.0149 27.2533L29.5218 29.7463C28.3762 30.8919 26.5121 30.8916 25.367 29.7468L14.5609 18.9314C13.4126 17.7832 13.4124 15.9247 14.5609 14.7763C14.9624 14.3747 16.1155 13.2216 17.054 12.2832C18.5595 10.7777 18.5805 8.32482 17.0525 6.79697L11.5691 1.33084C10.057 -0.181235 7.59645 -0.181235 6.08834 1.32688C4.95981 2.44558 4.59582 2.80647 4.08981 3.30809C-1.36323 8.76103 -1.36323 17.6337 4.08955 23.0864L21.2115 40.2173C26.6772 45.6832 35.5238 45.6836 40.99 40.2173L42.9846 38.2228C44.4967 36.7107 44.4967 34.2502 42.9846 32.7381ZM7.91262 3.15909C8.41665 2.65507 9.23667 2.65498 9.74233 3.16047L15.2257 8.6266C15.7309 9.13183 15.7309 9.94953 15.2257 10.4548L14.3115 11.369L7.00315 4.06063L7.91262 3.15909ZM23.0401 38.3893L5.91806 21.2583C1.69919 17.0394 1.4673 10.4149 5.20489 5.91896L12.492 13.2061C10.5773 15.3767 10.6571 18.6843 12.7322 20.7594L23.538 31.5742C23.538 31.5743 23.5382 31.5745 23.5383 31.5746C25.6112 33.6476 28.9186 33.7325 31.0919 31.8152L38.3792 39.1025C33.8976 42.8336 27.288 42.6372 23.0401 38.3893ZM41.1564 36.3946L40.2422 37.3088L32.9291 29.9956L33.8431 29.0815C34.3473 28.5775 35.1674 28.5774 35.6715 29.0815L41.1563 34.5663C41.6604 35.0704 41.6604 35.8906 41.1564 36.3946Z" fill="white"/>
</svg>
