<svg width="39" height="45" viewBox="0 0 39 45" fill="none" xmlns="http://www.w3.org/2000/svg">
<path d="M26.7546 29.151C31.4496 21.7838 30.8594 22.703 30.9947 22.5109C32.704 20.0999 33.6074 17.2623 33.6074 14.3047C33.6074 6.46125 27.2426 0 19.3889 0C11.5608 0 5.17038 6.44849 5.17038 14.3047C5.17038 17.2604 6.09277 20.1723 7.85811 22.6157L12.023 29.1511C7.57003 29.8354 0 31.8747 0 36.365C0 38.0018 1.06837 40.3345 6.15809 42.1523C9.71204 43.4215 14.4108 44.1205 19.3889 44.1205C28.6977 44.1205 38.7778 41.4947 38.7778 36.365C38.7778 31.8739 31.2167 29.8368 26.7546 29.151ZM10.0175 21.1938C10.0033 21.1716 9.98848 21.1499 9.97297 21.1285C8.50398 19.1076 7.75557 16.7125 7.75557 14.3047C7.75557 7.84019 12.9609 2.58519 19.3889 2.58519C25.8035 2.58519 31.0223 7.84251 31.0223 14.3047C31.0223 16.7163 30.288 19.0302 28.8984 20.9978C28.7739 21.1621 29.4236 20.1528 19.3889 35.8987L10.0175 21.1938ZM19.3889 41.5354C9.22102 41.5354 2.58519 38.5466 2.58519 36.365C2.58519 34.8987 5.99488 32.4876 13.5505 31.5478L18.2988 38.9986C18.5361 39.371 18.9472 39.5965 19.3888 39.5965C19.8305 39.5965 20.2416 39.371 20.4788 38.9986L25.227 31.5478C32.7829 32.4876 36.1926 34.8987 36.1926 36.365C36.1926 38.5281 29.6165 41.5354 19.3889 41.5354Z" fill="white"/>
<path d="M19.3889 7.8418C15.8252 7.8418 12.9259 10.7411 12.9259 14.3048C12.9259 17.8685 15.8252 20.7677 19.3889 20.7677C22.9526 20.7677 25.8518 17.8685 25.8518 14.3048C25.8518 10.7411 22.9526 7.8418 19.3889 7.8418ZM19.3889 18.1826C17.2507 18.1826 15.5111 16.443 15.5111 14.3048C15.5111 12.1666 17.2507 10.427 19.3889 10.427C21.5271 10.427 23.2667 12.1666 23.2667 14.3048C23.2667 16.443 21.5271 18.1826 19.3889 18.1826Z" fill="white"/>
</svg>
