<svg width="45" height="34" viewBox="0 0 45 34" fill="none" xmlns="http://www.w3.org/2000/svg">
<path d="M40.2428 0H3.87778C1.74224 0 0 1.74035 0 3.87778V29.7297C0 31.8599 1.73449 33.6074 3.87778 33.6074H40.2428C42.373 33.6074 44.1205 31.873 44.1205 29.7297V3.87778C44.1205 1.74759 42.3861 0 40.2428 0ZM39.7073 2.58519L22.1425 20.1501L4.42576 2.58519H39.7073ZM2.58519 29.1944V4.40077L15.0354 16.7442L2.58519 29.1944ZM4.41318 31.0223L16.8712 18.5642L21.2365 22.892C21.7418 23.393 22.5572 23.3914 23.0605 22.8881L27.3168 18.6317L39.7074 31.0223H4.41318ZM41.5354 29.1943L29.1448 16.8037L41.5354 4.41309V29.1943Z" fill="white"/>
</svg>
